<svg xmlns="http://www.w3.org/2000/svg" viewBox="0 0 197.8916 253.3451"><defs><style>.cls-1{fill:#916444;}.cls-2{fill:#f6c949;}.cls-3{fill:#534aff;}.cls-4{fill:#e08f58;}.cls-5{fill:#2f2fd3;}.cls-6{fill:#0b1a32;}</style></defs><g id="Слой_2" data-name="Слой 2"><g id="OBJECTS"><path class="cls-1" d="M172.1962,110.6239a.7016.7016,0,0,0-.6985-.6985,29.1811,29.1811,0,0,0-3.8851.729.6287.6287,0,0,0-.7474-.2858l-12.289,3.5378a.643.643,0,0,0-.484.5443,12.4292,12.4292,0,0,1-3.6585.0761l1.1958-6.7583c.0815-.4609-.3147-1.0778-.8593-.8593a44.3087,44.3087,0,0,0-4.488,2.0862c-1.3784.7412-2.6941,1.5908-4.0672,2.341a35.7939,35.7939,0,0,1-3.84,1.6754,8.9658,8.9658,0,0,0-3.417,2.142.6715.6715,0,0,0-.1788.5722.6978.6978,0,0,0-.2313.675q2.0413,11.0043,4.47,21.9321.69,3.1021,1.411,6.1973a.6384.6384,0,0,0,.8871.4518.6488.6488,0,0,0,.6347-.0221c4.7406-2.6493,9.4892-5.2849,14.22-7.9525,2.3156-1.3057,4.6549-2.5949,6.8986-4.022a26.1562,26.1562,0,0,0,5.6715-5.0075,11.7915,11.7915,0,0,0,1.1329-1.55l.0005-.0006a6.5629,6.5629,0,0,0,1.58-5.17c.0074-.2065.01-.4141.0045-.6228a.6516.6516,0,0,0-.2993-.5555,8.6627,8.6627,0,0,1-.3686-1.1065c-.1425-.64.4023-1.2647.6094-1.849a5.6693,5.6693,0,0,0,.31-2.1713,10.24,10.24,0,0,0-.15-1.0661,1.7543,1.7543,0,0,1,.2255-.94A6.7194,6.7194,0,0,0,172.1962,110.6239Z"/><path class="cls-2" d="M154.7313,138.94l-.0289.04a.6583.6583,0,0,0-.3947.2032,9.4794,9.4794,0,0,1-2.0228,1.5665.6073.6073,0,0,0-.43.0176,92.2641,92.2641,0,0,0-8.5713,3.7821.5867.5867,0,0,0-.3484.6168q-1.3331.5439-2.6756,1.0641l-5.48-30.5045,7.4356-4.39s-9.29-30.134-14.6172-38.31-32.1994-22.77-32.1994-22.77l.3619,7.6562L89.0232,72.0548,87,55.4313s-4.563-5.8181-4.2476-8.42l.317-.4958S51.4108,41.56,37.4122,59.7709,0,162.2208,0,164.2029a9.3246,9.3246,0,0,0,1.2789,4.0859S20.936,154.7879,50.172,149.2132c0,0,6.052,8,21.4,8.5478s41.6476-3.097,47.4785-5.3269c1.0258-.3923,2.3493-.8279,3.8336-1.28a.72.72,0,0,0,.7293,1.1315,16.9951,16.9951,0,0,1,7.43-.1614,17.208,17.208,0,0,1,3.5388,1.1069,25.66,25.66,0,0,1,3.336,1.9219,3.4328,3.4328,0,0,0,3.5859.4665,8.309,8.309,0,0,0,1.4824-1.2147q.805-.7385,1.5921-1.4963,2.9663-2.8562,5.6647-5.974,3.028-3.4988,5.6949-7.29C156.4565,138.9087,155.2458,138.21,154.7313,138.94ZM116.944,116.6026c-2.6011.143-5.0772,1.0957-7.6806,1.2388a.468.468,0,0,1-.4657-.4657c.3563-3.761,1.5477-7.3567,2.345-11.0336q1.4164,2.194,2.833,4.3879a31.7165,31.7165,0,0,0,3.1889,4.939l.1732.2683c.0092.0142.019.0269.0287.04A.46.46,0,0,1,116.944,116.6026Zm11.22,33.7326a.7592.7592,0,0,0-.1645.07,18.5634,18.5634,0,0,0-3.5131.2732c4.5027-1.3092,9.9275-2.6705,13.1169-3.45q-1.9777.7224-3.9748,1.3914Q130.9121,149.5284,128.1636,150.3352Z"/><path class="cls-3" d="M93.5544,233.5389S126.1632,208.81,136.2335,198.1s14.1078-24.2,12.3722-30.5112-5.64-17.12-26.5666-16.1729c0,0-19.3173,4.9966-37.9323,6.0914s-26.5329.4473-33.4083-8.5532c0,0-40.0265,8.1838-49.42,19.3352a85.5878,85.5878,0,0,0,1.1059,17.5076c1.5794,8.51,22.3915,28.1138,59.7417,15.0134L38.8059,233.5389Z"/><path class="cls-4" d="M38.8059,233.5389A36.6361,36.6361,0,0,0,30.693,253.16s92.1038.4125,92.5162,0,.4124-4.6429-7.8357-8.2171-21.8191-11.4042-21.8191-11.4042Z"/><path class="cls-1" d="M121.0608,249.8928H103.3959a4.7285,4.7285,0,0,1,3.3227-3.8147c2.1923-.633,4.0272.5155,5.7578,1.7323a.7015.7015,0,0,0,1.0261-.4175,5.0587,5.0587,0,0,1,.7306-2.0244c.479-.7639-.7293-1.4659-1.2062-.7051a6.1548,6.1548,0,0,0-.6473,1.3884,9.7565,9.7565,0,0,0-2.6323-1.3206,6.0509,6.0509,0,0,0-6.4932,2.1115,6.57,6.57,0,0,0-1.71-2.2159,7.6737,7.6737,0,0,1,5.2245-2.012.6989.6989,0,0,0,0-1.397,9.1,9.1,0,0,0-6.3707,2.57,12.0153,12.0153,0,0,0-2.1489-1.0442c-.143-.0533-.2878-.1028-.4337-.15a5.9215,5.9215,0,0,1,4.6024-2.0684.6989.6989,0,0,0,0-1.397,7.2736,7.2736,0,0,0-5.61,2.5.69.69,0,0,0-.16.6194,10.2785,10.2785,0,0,1-2.2734-.8583,4.5,4.5,0,0,1-.7086-.5015.9775.9775,0,0,0,.2044-.3115,4.7189,4.7189,0,0,1,4.0723-2.7982c.8955-.0388.9-1.436,0-1.397a6.1588,6.1588,0,0,0-5.2493,3.452c-.3331-.4385-.6329-.9065-.929-1.3648q-1.489-2.3041-2.9774-4.6087c-.4862-.7526-1.6961-.053-1.2063.7051l2.5737,3.9838a15.8442,15.8442,0,0,0,2.435,3.2562,8.8633,8.8633,0,0,0,3.6644,1.7651,12.9182,12.9182,0,0,1,3.77,1.6131,5.28,5.28,0,0,1,2.3,3.3372l.0019.0077a6.3368,6.3368,0,0,0-.3327,1.3657H73.0305a7.6209,7.6209,0,0,1,4.7524-3.2283c2.376-.4777,4.7185.593,6.8261,1.5609a.7084.7084,0,0,0,1.026-.4175,3.69,3.69,0,0,1,2.11-2.6207.7215.7215,0,0,0,.4879-.8592.703.703,0,0,0-.8592-.4878,5.1892,5.1892,0,0,0-2.8439,2.8237c-2.2531-1.0026-4.6192-1.8494-7.1185-1.3465A8.3809,8.3809,0,0,0,74.3,246.6617a6.6428,6.6428,0,0,0-.7726-1.7742,15.6423,15.6423,0,0,1,2.1365-1.2091,8.5634,8.5634,0,0,1,2.6551-.5879,26.9488,26.9488,0,0,1,6.0709-.0653.7022.7022,0,0,0,.6985-.6985.7161.7161,0,0,0-.6985-.6985,27.98,27.98,0,0,0-6.4272.1015,9.4236,9.4236,0,0,0-2.7735.6431,16.995,16.995,0,0,0-2.5149,1.4037A7.0468,7.0468,0,0,0,71.35,242.675a20.9349,20.9349,0,0,1,3.6549-1.6158,9.57,9.57,0,0,1,2.253-.4228,7.2536,7.2536,0,0,0,2.2966-.3433.72.72,0,0,0,.4879-.8593.7036.7036,0,0,0-.8592-.4878,8.2215,8.2215,0,0,1-2.3309.3234,11.3392,11.3392,0,0,0-2.3777.4925,27.2379,27.2379,0,0,0-4.5123,2.0723.7469.7469,0,0,0-.1528.1085,13.9709,13.9709,0,0,0-2.4349-.4264,16.8622,16.8622,0,0,1,11.1808-4.0479.6989.6989,0,0,0,0-1.397A18.2893,18.2893,0,0,0,65.86,241a.7453.7453,0,0,0-.1264.1547c-1.3328-.5-2.2652-1.8269-3.1892-2.8429l-3.8094-4.1888c-.6062-.6665-1.5918.3237-.9878.9878l3.2473,3.5708a21.5466,21.5466,0,0,0,3.1377,3.19,8.42,8.42,0,0,0,3.9534,1.1269,5.8149,5.8149,0,0,1,3.27,1.4278,5.5867,5.5867,0,0,1,1.7323,3.2373,9.6461,9.6461,0,0,0-1.3758,1.69.6151.6151,0,0,0-.084.5388H31.8272a.6989.6989,0,0,0,0,1.397h89.2336A.6989.6989,0,0,0,121.0608,249.8928Z"/><path class="cls-3" d="M150.5078,113.4115l6.474-24.7963a1.495,1.495,0,0,1,1.5044-1.1163l16.87.6525a1.4953,1.4953,0,0,1,1.4065,1.7968l-4.0308,19.4991L152.17,114.0509Z"/><path class="cls-5" d="M167.5184,92.5311a2.2524,2.2524,0,0,0-.8512-1.2317,1.089,1.089,0,0,0-1.445.3071,2.2073,2.2073,0,0,0-.62,1.4616,1.5967,1.5967,0,0,0,.4854,1.3194.6618.6618,0,0,0,.7974.1078c.0321.0021.0643.0029.0964.0028a1.3259,1.3259,0,0,0,1.3965-.9192A1.5027,1.5027,0,0,0,167.5184,92.5311Z"/><path class="cls-5" d="M166.6562,96.28a.8321.8321,0,0,0-1.0271-.6211.9811.9811,0,0,0-.617.4854.9025.9025,0,0,0,.1373,1.0638.6849.6849,0,0,0,.446.1994.5958.5958,0,0,0,.27.055l.1857-.025a.6965.6965,0,0,0,.3082-.18.9736.9736,0,0,0,.2781-.4413A1.04,1.04,0,0,0,166.6562,96.28Z"/><path class="cls-6" d="M114.4169,87.3987a71.81,71.81,0,0,1-3.2992,16.636c-.2779.8572,1.0706,1.2243,1.3471.3714a73.4014,73.4014,0,0,0,3.3491-17.0074C115.8828,86.5021,114.4855,86.5066,114.4169,87.3987Z"/><path class="cls-6" d="M173.1331,112.3534a.5891.5891,0,0,0-.3844-.6225,8.0536,8.0536,0,0,0,.41-2.16.6906.6906,0,0,0-1.2005-.4626.6657.6657,0,0,0-.5941-.13L160.7861,111.43l-5.2436,1.2152a18.8463,18.8463,0,0,1-4.2535.7q.8068-3.1908,1.6138-6.3818a.7.7,0,0,0-.715-.8682.7139.7139,0,0,0-.8471-.5452,15.936,15.936,0,0,0-4.3387,1.7466c-1.4324.7793-2.8492,1.5883-4.2724,2.384l-8.8841,4.9664-.0173.0108a.5084.5084,0,0,0-.1145-.0021L106.71,117.4406c-4.3813.4518-8.7771.8367-13.1356,1.48a61.2924,61.2924,0,0,0-8.0825,1.6937c-.0035-.011-.0061-.022-.01-.0329q-2.8409-7.2353-5.5519-14.52a100.5664,100.5664,0,0,0,7.756-25.22q.6267-3.7446.9732-7.5292c1.077-.4159,1.5228-1.634,2.0094-2.6l2.0461-4.0612,3.79-7.523A9.6709,9.6709,0,0,1,99.9177,61.47a.6373.6373,0,0,0,.4279.2133l1.5234,1.4013a.7076.7076,0,0,0,1.1675-.3082,10.5852,10.5852,0,0,0,.0081-6.7566c-.2856-.8475-1.6353-.484-1.3471.3714a9.2938,9.2938,0,0,1,.2946,4.91l-1.0121-.9309a.6946.6946,0,0,0-.3639-.182,11.14,11.14,0,0,0-4.2691-2.6034c-.0144-.0049-.0292-.0087-.0441-.0122a12.5066,12.5066,0,0,0-.2018-5.5215.6991.6991,0,0,0-1.3471.3714,11.022,11.022,0,0,1,.0193,5.6.6547.6547,0,0,0,.3373.7714q-1.6761,3.327-3.3524,6.654l-1.8791,3.73c-.3062.6078-.6089,1.2174-.9187,1.8234-.0268.0526-.0542.1076-.0823.1636q-.2621-4.1631-.5242-8.3264-.1539-2.443-.3076-4.8863a19.5128,19.5128,0,0,0-.1947-2.3287,4.6409,4.6409,0,0,0-.9656-1.8752l-3.3011-4.5027a.7206.7206,0,0,0-.9557-.2506.7032.7032,0,0,0-.2506.9557L85.1927,53.79c.0857.1169.1787.2355.2739.3559a60.7963,60.7963,0,0,0-7.1291,7.0064,8.1616,8.1616,0,0,1-.7512-2.968,24.07,24.07,0,0,1-.31-3.806,7.5186,7.5186,0,0,1,2.1873-5.5963c.67-.6026-.3207-1.588-.9878-.9879a8.8359,8.8359,0,0,0-2.5922,6.4026,24.517,24.517,0,0,0,.33,4.1783,8.6852,8.6852,0,0,0,1.02,3.6491.6773.6773,0,0,0,.7421.3019.63.63,0,0,0,1.0586.1495,60.8138,60.8138,0,0,1,7.2348-7.1866,2.5359,2.5359,0,0,1,.144.3311,8.2985,8.2985,0,0,1,.2251,2.1487l.5978,9.4961q.1713,2.72.3425,5.44l.0026.0225a.7007.7007,0,0,0-.3145.5372,99.2714,99.2714,0,0,1-5.8626,25.637q-1.0024,2.6847-2.1627,5.3051-.8359-2.2617-1.66-4.5277-3.8154-10.5019-7.3594-21.1-1.9959-5.9688-3.9051-11.9662c-.2717-.8535-1.6209-.4887-1.347.3713q3.39,10.647,7.0523,21.2047,3.1095,8.9626,6.4154,17.8554a.73.73,0,0,0,.2476.667q.4648,1.2476.9333,2.4936,1.9179,5.1,3.9012,10.1742a35.2512,35.2512,0,0,0-10.4169.0722,15.8866,15.8866,0,0,0-8.5172,3.6695c-.66.6137.33,1.6.9878.9878a14.7138,14.7138,0,0,1,7.9008-3.31,33.1818,33.1818,0,0,1,10.4151.04.954.954,0,0,0,.2044.011l.0411.1053c.0092.0233.0194.0461.03.0685-.8575.2779-1.7069.5819-2.5447.9194a29.3935,29.3935,0,0,0-10.5225,6.9078c-.6166.6538.3694,1.6435.9878.9878,5.3517-5.6748,13.0377-8.137,20.5391-9.3634,4.2686-.6978,8.5873-1.0684,12.8876-1.5119l13.2716-1.3685,14.7251-1.5184a.7318.7318,0,0,0,.0222.2539q3.5292,13.5032,5.8148,27.29c.1015.6135.1955,1.2284.2986,1.8417a.5024.5024,0,0,0-.2135.0922l-1.3756,1.0424a.6474.6474,0,0,0-.4317-.0036,255.8916,255.8916,0,0,1-29.2629,7.2623,249.1335,249.1335,0,0,1-29.71,3.7342c-8.3735.5352-17.6829.36-24.2563-5.615-5.9762-5.432-8.4953-13.5824-10.8845-21.0368q-4.7877-14.939-9.5757-29.8778l-1.1568-3.6094c-.2733-.8528-1.6225-.4883-1.347.3714q4.8521,15.1393,9.7042,30.2788c2.233,6.9672,4.2607,14.4565,8.5144,20.5265l-.218.218a.69.69,0,0,0-.1248.1741.6714.6714,0,0,0-.686-.2255c-6.5081,1.4488-12.99,3.0478-19.344,5.0769a110.0256,110.0256,0,0,0-18.2979,7.5482A77.7359,77.7359,0,0,0,1.53,167.3331a.7207.7207,0,0,0-.2506.9557.7031.7031,0,0,0,.9557.2506,83.8284,83.8284,0,0,1,17.1211-9.5558,141.5585,141.5585,0,0,1,18.7754-6.2285c3.6-.9516,7.2251-1.8071,10.86-2.6163a.61.61,0,0,0,.4325-.3151l.007.0073a.703.703,0,0,0,.4939.2046.728.728,0,0,0,.4939-.2046l.0668-.0668q.4666.6038.9669,1.1854a22.4424,22.4424,0,0,0,10.34,6.7624,40.2189,40.2189,0,0,0,13.0524,1.45c4.9007-.1246,9.8061-.5967,14.6771-1.1289q7.54-.8238,15.0236-2.0886,8.4753-1.4333,16.8414-3.4344a.6763.6763,0,0,0-.1808.1234.7153.7153,0,0,0,0,.9878A23.3016,23.3016,0,0,1,126.0322,169.3c-.3517,5.8631-2.7663,11.4323-5.9514,16.2952-3.28,5.0075-7.4027,9.38-11.48,13.7358L95.1321,213.7193,81.6,228.1751l-1.383,1.4774a.5826.5826,0,0,0-.5675.5019q-.9138,4.5279-1.4549,9.1182a.7024.7024,0,0,0,.6985.6985l.0209-.001a.5891.5891,0,0,0,.35.4594q4.9183,2.4338,10.0226,4.4633,2.5487,1.0132,5.1378,1.92a17.9676,17.9676,0,0,1,4.4435,1.9944,7.3041,7.3041,0,0,1,2.8152,4.0444.699.699,0,0,0,1.347-.3714,8.771,8.771,0,0,0-2.3849-4.0124,12.5853,12.5853,0,0,0-4.4262-2.4971c-3.4908-1.29-6.9813-2.5332-10.3955-4.0221q-2.96-1.2909-5.8544-2.7255a.7171.7171,0,0,0-.362-.0781q.4952-4.1216,1.3057-8.1955l.0229-.0222L94.7222,216.2q6.8933-7.3635,13.7863-14.7272c4.2119-4.4993,8.51-8.97,12.0251-14.0533a37.3929,37.3929,0,0,0,6.7457-16.49,24.73,24.73,0,0,0-3.824-16.555c-.3946-.6-.82-1.1759-1.2616-1.7412a.5736.5736,0,0,0-.4812-.2026q6.3422-1.5261,12.601-3.3744,1.8447-.5451,3.6809-1.1181c.0168-.0053.0324-.0117.0483-.0177a.6083.6083,0,0,0,.6116-.04l1.4811-1.1222a.9752.9752,0,0,0,.1856-.1841.85.85,0,0,0,.3238.0608.7566.7566,0,0,0,.607-.263.6739.6739,0,0,0,.488-.0722q8.4316-4.5525,16.8629-9.1062c4.7591-2.5861,9.73-5.5677,12.2878-10.5551a12.5155,12.5155,0,0,0,1.2525-8.6141.7023.7023,0,0,0-.1136-.2519c.0482-.1248.0954-.25.14-.3765A18.2629,18.2629,0,0,0,173.1331,112.3534ZM153.89,123.483a40.3935,40.3935,0,0,0,9.4984-3.2887c2.8746-1.4162,5.91-3.14,7.89-5.7254.0961-.1254.1881-.2537.2781-.3831a12.9,12.9,0,0,1-2.4024,6.0469,10.5,10.5,0,0,1-3.53,2.77c-1.6135.8511-3.2485,1.6636-4.8731,2.4935l-5.6131,2.8677c-.8008.4091-.0947,1.6149.7051,1.2062,3.4457-1.76,6.9072-3.493,10.3374-5.2833a12.0081,12.0081,0,0,0,3.8316-2.9053,11.7319,11.7319,0,0,0,1.0169-1.4448c.3859,4.5773-2.5636,8.8415-6.0091,11.649a43.8029,43.8029,0,0,1-6.7708,4.3108c-2.6389,1.4413-5.2907,2.8595-7.9365,4.2881l-9.2352,4.9865a.6533.6533,0,0,0-.0935-.049c-.0057-.0258-.0109-.05-.0141-.07q-.0573-.3591-.1155-.7181-.1235-.7629-.2511-1.5251-.24-1.4348-.4937-2.8673-.5154-2.91-1.0874-5.8088-1.1442-5.7981-2.5132-11.5487-.7794-3.2725-1.6309-6.5273a.7142.7142,0,0,0-.1036-.228l8.4992-4.7513c1.4284-.7985,2.8517-1.6069,4.2866-2.3936a15.5855,15.5855,0,0,1,3.9049-1.6314l-1.7332,6.8542a.7108.7108,0,0,0,.6735.8842,15.2006,15.2006,0,0,0,5.2378-.6353l5.334-1.2361,10.6994-2.48c-.4564,2.6571-2.5481,4.72-4.7168,6.19a36.9243,36.9243,0,0,1-8.3205,4.1676,39.8952,39.8952,0,0,1-5.12,1.4391C152.6394,122.3216,153.0114,123.6685,153.89,123.483Z"/><path class="cls-6" d="M44.3983,141.2991a19.5535,19.5535,0,0,0-9.03.4281.6991.6991,0,0,0,.3714,1.3471,17.9788,17.9788,0,0,1,8.287-.4281C44.9057,142.8093,45.2825,141.4632,44.3983,141.2991Z"/><path class="cls-6" d="M83.9105,171.4256a.7031.7031,0,0,0-.9878,0q-5.9416,7.328-11.3239,15.0854a50.9827,50.9827,0,0,1,6.7147-14.0019c.5089-.744-.7012-1.4435-1.2062-.7051a52.0909,52.0909,0,0,0-7.4627,16.5135.6491.6491,0,0,0,.2352.7044q-1.3185,1.9524-2.6,3.9294-2.0472,3.16-3.9974,6.3813a.699.699,0,0,0,1.2062.7051,248.4322,248.4322,0,0,1,14.8234-21.7772q2.2537-2.9592,4.5988-5.847A.72.72,0,0,0,83.9105,171.4256Z"/><path class="cls-1" d="M111.9817,24.6687a.6207.6207,0,0,0-.4182-.464c.12-5.7945-5.5567-10.2837-10.5881-12.2325a18.6537,18.6537,0,0,0-9.2128-1.1585,15.5315,15.5315,0,0,0-7.6381,3.3078,13.708,13.708,0,0,0-4.8577,7.6478.6778.6778,0,0,0,.1049.554,3.92,3.92,0,0,0-3.7474,2.5922,5.0929,5.0929,0,0,0,2.4962,5.9628.5059.5059,0,0,0-.0172.1371.6347.6347,0,0,0-.3732.61A16.4284,16.4284,0,0,0,83.1307,41.814a.7012.7012,0,0,0-.0665.309l.0064,3.6888a10.3239,10.3239,0,0,0,.3578,3.515,16.4734,16.4734,0,0,0,1.6255,2.9485q.9733,1.578,1.9465,3.156.6715,8.1183.7211,16.2709c.004.6574.9882.9977,1.3017.3526,1.5609-3.2126,3.16-6.41,4.6784-9.6428,1.3834-2.9467,2.6088-6.1979,1.7725-9.4813a.655.655,0,0,0-.2237-.362l.3113-4.8637A15.1286,15.1286,0,0,0,106.4641,42.93a21.69,21.69,0,0,0,5.7592-11.1579A17.0781,17.0781,0,0,0,111.9817,24.6687Z"/><path class="cls-4" d="M118.2526,17.69c1.1547-2.8,2.2582-5.8187,1.9258-8.8675-.3567-3.2718-4.3962-1.8408-6.704-.69-.1545-1.7729-.6433-3.5168-2.3223-4.4633A4.6927,4.6927,0,0,0,107.0866,3.4a5.4055,5.4055,0,0,0-1.8813-1.116c-2.1268-.744-4.4283.0124-6.48.64-.3.0921-.6575.2825-.9023.01a3.3642,3.3642,0,0,1-.4578-.9426A2.9329,2.9329,0,0,0,95.7573.2208c-1.6966-.6659-3.6239.3026-5.034,1.2026a14.7021,14.7021,0,0,0-4.421,4.4017c-.0844.0336-.1682.0686-.2513.1059a8.0108,8.0108,0,0,0-2.2488.1534A7.8641,7.8641,0,0,0,80.013,8.4a14.28,14.28,0,0,0-3.6,7.8508,31.5379,31.5379,0,0,0-.2656,5.7288.7046.7046,0,0,0,1.051.6031l1.0416-.688a5.8633,5.8633,0,0,1,3.2491.3009.6645.6645,0,0,0,.2986.0466.6271.6271,0,0,0,.8376.1258,18.2,18.2,0,0,0,6.1788-6.3043.6913.6913,0,0,0,.2643.0287l.0989-.0074c.016.0061.0315.0124.0484.0177A17.3445,17.3445,0,0,0,99.62,15.9684c.0073.0121.0142.0245.0227.0361a5.8762,5.8762,0,0,0,3.2143,2.2683,3.0031,3.0031,0,0,1,.8364.1842,3.6435,3.6435,0,0,1,.5768.8371,17.442,17.442,0,0,0,1.3031,1.663,8.5522,8.5522,0,0,0,6.2588,3.1026,26.916,26.916,0,0,1,.4547,3.3207.7076.7076,0,0,0,1.051.6032,15.1336,15.1336,0,0,0,5.4928-5.2743c.6964-1.0868,1.44-2.5082.8274-3.799A2.3079,2.3079,0,0,0,118.2526,17.69Z"/><path class="cls-6" d="M92.6,25.1758a2.3062,2.3062,0,0,0-3.7266.274,2.0115,2.0115,0,0,0,.2694,2.2438,2.0706,2.0706,0,0,0,1.9867.9561A2.271,2.271,0,0,0,92.6,25.1758Z"/><path class="cls-6" d="M108.4565,30.6248a2.3061,2.3061,0,0,0-3.7265.274,2.0111,2.0111,0,0,0,.2694,2.2437,2.0705,2.0705,0,0,0,1.9867.9562A2.271,2.271,0,0,0,108.4565,30.6248Z"/><path class="cls-6" d="M99.8563,30.4359q.41-1.4113.821-2.8225a.702.702,0,0,0-.5819-.7983.7162.7162,0,0,0-.7982.5819q-.4637,1.5939-.9274,3.1879a.674.674,0,0,0,.2484.6495,2.0743,2.0743,0,0,1,.8761,2.4664,1.6559,1.6559,0,0,1-2.3008.8876c-.8074-.4-1.38.8749-.5755,1.2733a3.0631,3.0631,0,0,0,4.0918-1.456A3.42,3.42,0,0,0,99.8563,30.4359Z"/><path class="cls-6" d="M99.33,37.24c-1.8146.7491-4.3145.6045-5.2628-1.3969-.3828-.8077-1.6873-.3056-1.3009.51,1.2793,2.7,4.5006,3.25,7.0734,2.1881A.699.699,0,0,0,99.33,37.24Z"/><path class="cls-6" d="M80.7042,23.1642a.6989.6989,0,0,0,.9878-.9879,4.0485,4.0485,0,0,0-3.631-1.0436,4.6442,4.6442,0,0,0-3.0712,2.3,5.57,5.57,0,0,0,1.4523,7.303,4.4856,4.4856,0,0,0,4.3434.3464.7048.7048,0,0,0,.2506-.9557.7142.7142,0,0,0-.9557-.2506,3.0988,3.0988,0,0,1-3.2679-.6111,4.1078,4.1078,0,0,1-1.164-3.5406,4.3492,4.3492,0,0,1,.6745-1.7935.74.74,0,0,0,.2346.0377,3.443,3.443,0,0,1,3.3232,2.8577.7212.7212,0,0,0,.6985.6985.7025.7025,0,0,0,.6985-.6985,4.9085,4.9085,0,0,0-3.5981-4.11A2.6883,2.6883,0,0,1,80.7042,23.1642Z"/><path class="cls-6" d="M107.2332,9.9511a12.018,12.018,0,0,1-10.2347,5.683.6989.6989,0,0,0,0,1.397,13.4483,13.4483,0,0,0,11.441-6.3749C108.9085,9.8864,107.7009,9.1836,107.2332,9.9511Z"/><path class="cls-6" d="M110.7769,12.72a8.42,8.42,0,0,1-6.5918,4.614.718.718,0,0,0-.6985.6985.7033.7033,0,0,0,.6985.6984,9.8331,9.8331,0,0,0,7.7981-5.3059C112.3832,12.6233,111.1786,11.9149,110.7769,12.72Z"/><path class="cls-6" d="M113.4182,22.8174a7.1669,7.1669,0,0,1-3.8311-.064.6991.6991,0,0,0-.3714,1.3471,8.6153,8.6153,0,0,0,4.5739.064A.6991.6991,0,0,0,113.4182,22.8174Z"/><path class="cls-2" d="M176.022,108.6228a77.4287,77.4287,0,0,1-5.3738-6.7889c-.5136-.73-1.7254-.0323-1.2063.7051a80.6763,80.6763,0,0,0,5.5922,7.0716C175.6317,110.2848,176.6167,109.2938,176.022,108.6228Z"/><path class="cls-2" d="M179.3771,100.4416,172.7,97.0983c-.8017-.4014-1.51.8033-.7051,1.2063l6.6775,3.3432C179.4737,102.0492,180.182,100.8446,179.3771,100.4416Z"/><path class="cls-2" d="M181.8427,90.18a36.9913,36.9913,0,0,1-8.2287,1.4415c-.8934.0532-.9,1.4506,0,1.397a38.6985,38.6985,0,0,0,8.6-1.4914A.6991.6991,0,0,0,181.8427,90.18Z"/><polygon class="cls-2" points="192.087 93.905 190.298 86.589 188.509 93.905 182.705 95.04 188.389 96.295 190.298 104.678 192.207 96.295 197.892 95.04 192.087 93.905"/><polygon class="cls-2" points="181.971 77.523 180.983 73.487 179.996 77.523 176.794 78.15 179.93 78.842 180.983 83.467 182.037 78.842 185.173 78.15 181.971 77.523"/><polygon class="cls-2" points="178.81 125.058 177.823 121.022 176.836 125.058 173.633 125.684 176.77 126.377 177.823 131.002 178.876 126.377 182.013 125.684 178.81 125.058"/></g></g></svg>
